<?xml version="1.0" encoding="UTF-8"?>
<svg id="logo_copy" data-name="logo copy" xmlns="http://www.w3.org/2000/svg" viewBox="0 0 200 217.3">
  <defs>
    <style>
      .cls-1 {
        fill: #fff;
      }
    </style>
  </defs>
  <g>
    <path class="cls-1" d="m120.87,94.15c.26-2.97.8-7.34,4.06-10.46,2.32-2.22,5.1-2.92,6.8-3.18v56.14c-6.01,2.08-14.47,4.27-24.73,4.62-13.08.45-23.68-2.26-30.49-4.62-.88-2.6-1.58-6.08,0-8.78,6.13-10.52,38.78,4.3,45.14-6.16,2.9-4.76-2.26-10.49-.79-27.57Z"/>
    <path class="cls-1" d="m75.8,77.21c-.53,0,0,44.19,0,44.19,0,0,4.85-3.94,15.13-2.72l-.58-30.76s-4.89-10.71-14.55-10.71Z"/>
  </g>
  <path class="cls-1" d="m183.97,135.25c-37.66,1.28-47.91.89-47.96.04,0-.11.17-.17.7-.58,2.15-1.67,2.91-3.66,3.88-5.42,0,0,1.58-2.96,3.94-5.12,2.89-2.66,6.1-1.56,17.5-1.02,7.63.36,15.63.32,15.63.32-.32-8.57-5.87-11.01-5.87-11.01l-32.73-.08c-.6-2.01-1.12-4.21-1.5-6.59-1.52-9.59-.02-17.86,1.66-23.58,8.24-2.72,28.73-8.52,44.76-2.06,4.36,1.76,4.37,2.84,4.44,3.13,1.87,7.37-30.26,20.96-40,7.23,0,0-7.06,13.72,0,12.51,7.06-1.21,33.15-1.42,34.83.08,1.68,1.5,13.92,20.48.73,32.15Z"/>
  <path class="cls-1" d="m66.81,110c-.47-.42-.98-.71-1.05-.74-.33-.18-.63-.3-.86-.38.49-.07,1.82-.31,2.94-1.38.69-.65,1.02-1.36,1.19-1.79,1.6-3.43,4.33-10.66,2.74-19.47-.91-5.07-2.74-8.27-2.74-8.27-17.55,0-35.09,0-52.64-.01.06.95.18,1.98.38,3.08,0,0,.12.65.28,1.3.37,1.54,1.88,5.07,4.39,9.51,10.83-.05,21.66-.09,32.49-.14.37.33,2.54,2.37,2.6,5.7.06,3.51-2.28,5.68-2.63,5.99-.65-.02-1.29-.03-1.94-.04-10.96-.23-21.78-.18-32.45.13-.02,5-.14,10.16-.4,15.49-.45,9.37-1.24,18.23-2.28,26.56,4.76-2.66,9.51-5.31,14.27-7.97h37.19s6.22-16.38,0-25.3c-.15-.41-.59-1.46-1.48-2.27Zm-12.96,18.42c-8.76.05-17.52.1-26.28.15v-13.58c8.76-.02,17.52-.05,26.28-.07.4.37,3.17,3.03,2.97,7.2-.18,3.63-2.49,5.86-2.97,6.31Z"/>
</svg>