<?xml version="1.0" encoding="UTF-8"?>
<svg id="logo" xmlns="http://www.w3.org/2000/svg" xmlns:xlink="http://www.w3.org/1999/xlink" viewBox="0 0 200 217.3">
  <defs>
    <style>
      .cls-1 {
        fill: #fff;
      }

      .cls-2 {
        fill: #252569;
      }

      .cls-3 {
        fill: #8dcc90;
      }

      .cls-4 {
        fill: #62c193;
      }

      .cls-5 {
        fill: #ef3d3b;
      }

      .cls-6 {
        clip-path: url(#clippath);
      }

      .cls-7 {
        fill: none;
      }

      .cls-8 {
        fill: #6fc283;
      }

      .cls-9 {
        fill: #17144a;
      }

      .cls-10 {
        fill: #6c78b9;
      }

      .cls-11 {
        fill: url(#linear-gradient);
      }

      .cls-12 {
        fill: #48bd98;
      }

      .cls-13 {
        fill: #077a3e;
      }
    </style>
    <clipPath id="clippath">
      <rect class="cls-7" y="17.3" width="200" height="200"/>
    </clipPath>
    <linearGradient id="linear-gradient" x1="100" y1="217.3" x2="100" y2="17.3" gradientUnits="userSpaceOnUse">
      <stop offset="0" stop-color="#252569"/>
      <stop offset="0" stop-color="#20346e"/>
      <stop offset=".8" stop-color="#48bd98"/>
      <stop offset=".85" stop-color="#48bd98"/>
    </linearGradient>
  </defs>
  <g class="cls-6">
    <rect class="cls-11" y="17.3" width="200" height="200"/>
    <rect class="cls-8" y="0" width="17.94" height="15.32"/>
    <rect class="cls-4" x="17.94" y="0" width="17.94" height="15.32"/>
    <rect class="cls-12" x="35.87" y="0" width="17.94" height="15.32"/>
    <rect class="cls-3" x="53.81" y="0" width="17.94" height="15.32"/>
    <rect class="cls-5" x="71.74" y="0" width="17.94" height="15.32"/>
    <rect class="cls-10" x="89.93" y="0" width="17.94" height="15.32"/>
    <rect class="cls-12" x="143.49" y="0" width="17.94" height="15.32"/>
    <rect class="cls-9" x="160.93" y="0" width="17.94" height="15.32"/>
    <rect class="cls-2" x="178.87" width="17.94" height="15.32"/>
    <rect class="cls-13" x="126.05" y="0" width="17.94" height="15.32"/>
    <path class="cls-1" d="m99.2,118.41l-9.39-32.56c-.17-.59-.13-1.23.1-1.79l8.72-20.84c.75-1.78-.56-3.75-2.5-3.75h-32.23c-7.35,0-13.37,6.02-13.37,13.37v46.33c0,1.49,1.21,2.71,2.71,2.71h8.95c-3.04-6.83.31-16.76,10.05-16.76s13.09,9.93,10.04,16.76h14.32c1.8,0,3.1-1.73,2.6-3.46Z"/>
    <path class="cls-1" d="m149.46,60.05c0-.07,0-.47-.33-.79-.2-.2-.48-.33-.79-.33h-16.87c-.62,0-1.12.5-1.11,1.12l.03,23.11c0,.6-.47,1.09-1.06,1.11l-4.44.21c-.64.03-1.17-.48-1.17-1.13l.26-23.3c0-.62-.49-1.13-1.11-1.13h-18.21c-.44,0-.84.26-1.02.66l-9.02,19.98-2.29,5.08c-.11.25-.13.54-.04.8l11.4,35.11c.15.46.58.77,1.06.77h12.52c-5.16-6.59-2.27-19.07,8.65-19.07s13.8,12.48,8.64,19.07h13.8c.62,0,1.11-.5,1.11-1.11v-11.54c0-3.68,0-7.36,0-11.04,0-12.53,0-25.07,0-37.6Z"/>
    <g>
      <path class="cls-1" d="m110.46,136.9c.15-1.7.46-4.21,2.33-6,1.33-1.28,2.93-1.68,3.9-1.82v32.2c-3.45,1.2-8.3,2.45-14.19,2.65-7.5.26-13.59-1.3-17.49-2.65-.51-1.49-.9-3.49,0-5.04,3.52-6.03,22.24,2.47,25.9-3.53,1.66-2.73-1.29-6.02-.45-15.81Z"/>
      <path class="cls-1" d="m84.61,127.18c-.3,0,0,25.35,0,25.35,0,0,2.78-2.26,8.68-1.56l-.33-17.64s-2.8-6.15-8.34-6.15Z"/>
    </g>
    <path class="cls-1" d="m146.66,160.47c-21.6.74-27.48.51-27.51.02,0-.07.1-.1.4-.33,1.23-.96,1.67-2.1,2.23-3.11,0,0,.91-1.7,2.26-2.94,1.66-1.52,3.5-.9,10.04-.59,4.38.21,8.97.18,8.97.18-.18-4.91-3.37-6.32-3.37-6.32l-18.78-.05c-.34-1.15-.64-2.42-.86-3.78-.87-5.5-.01-10.25.95-13.53,4.73-1.56,16.48-4.88,25.67-1.18,2.5,1.01,2.51,1.63,2.55,1.79,1.07,4.23-17.36,12.02-22.95,4.15,0,0-4.05,7.87,0,7.18,4.05-.7,19.01-.81,19.98.05.96.86,7.99,11.75.42,18.44Z"/>
    <path class="cls-1" d="m79.45,145.99c-.27-.24-.56-.41-.6-.43-.19-.1-.36-.17-.49-.22.28-.04,1.04-.18,1.69-.79.39-.38.59-.78.68-1.02.92-1.97,2.49-6.11,1.57-11.17-.52-2.91-1.57-4.74-1.57-4.74-10.07,0-20.13,0-30.2,0,.03.54.1,1.14.22,1.77,0,0,.07.37.16.74.21.88,1.08,2.91,2.52,5.46,6.21-.03,12.43-.05,18.64-.08.21.19,1.46,1.36,1.49,3.27.03,2.01-1.31,3.26-1.51,3.44-.37,0-.74-.02-1.11-.02-6.29-.13-12.49-.1-18.61.08,0,2.87-.08,5.83-.23,8.88-.26,5.37-.71,10.46-1.31,15.23,2.73-1.52,5.46-3.05,8.19-4.57h21.33s3.57-9.39,0-14.51c-.09-.24-.34-.84-.85-1.3Zm-7.43,10.57c-5.02.03-10.05.06-15.07.09v-7.79c5.02-.01,10.05-.03,15.07-.04.23.21,1.82,1.74,1.7,4.13-.1,2.08-1.43,3.36-1.7,3.62Z"/>
    <ellipse class="cls-1" cx="72.07" cy="115.83" rx="9.29" ry="9.43"/>
    <ellipse class="cls-1" cx="125.99" cy="113.75" rx="9.29" ry="9.43"/>
    <path class="cls-1" d="m150.01,116.4v-3.53c1.61,0,2.94,1.6,2.94,3.53s-1.33,3.53-2.94,3.53c-.02,0-.03,0-.05,0l.05-3.53Z"/>
  </g>
</svg>